<?xml version="1.0" encoding="utf-8"?>
<svg xmlns="http://www.w3.org/2000/svg" viewBox="0.6662 7.7655 252.9 114.3108" width="252.9px" height="114.3108px">
  <g style="stroke: none; stroke-width: 0; stroke-dasharray: none; stroke-linecap: butt; stroke-linejoin: miter; stroke-miterlimit: 10; fill: none; fill-rule: nonzero; opacity: 1;" transform="matrix(2.809999704360962, 0, 0, 2.809999704360962, 0.6661643385887146, -61.52909851074219)">
    <path d="M 69.66 64.34 H 20.34 C 9.659 64.34 1 55.681 1 45 v 0 c 0 -10.681 8.659 -19.34 19.34 -19.34 H 69.66 C 80.341 25.66 89 34.319 89 45 v 0 C 89 55.681 80.341 64.34 69.66 64.34 z" style="stroke: none; stroke-width: 1; stroke-dasharray: none; stroke-linecap: butt; stroke-linejoin: miter; stroke-miterlimit: 10; fill: rgb(97,211,84); fill-rule: nonzero; opacity: 1;" transform=" matrix(1 0 0 1 0 0) " stroke-linecap="round"/>
    <path d="M 69.66 65.34 H 20.34 C 9.125 65.34 0 56.216 0 45 s 9.125 -20.34 20.34 -20.34 h 49.32 C 80.876 24.66 90 33.784 90 45 S 80.876 65.34 69.66 65.34 z M 20.34 26.66 C 10.228 26.66 2 34.887 2 45 c 0 10.112 8.228 18.34 18.34 18.34 h 49.32 C 79.772 63.34 88 55.112 88 45 c 0 -10.113 -8.228 -18.34 -18.34 -18.34 H 20.34 z" style="stroke: none; stroke-width: 1; stroke-dasharray: none; stroke-linecap: butt; stroke-linejoin: miter; stroke-miterlimit: 10; fill: rgb(0,0,0); fill-rule: nonzero; opacity: 1;" transform=" matrix(1 0 0 1 0 0) " stroke-linecap="round"/>
    <path d="M 68.664 57.5 L 68.664 57.5 c 6.904 0 12.5 -5.596 12.5 -12.5 v 0 c 0 -6.904 -5.596 -12.5 -12.5 -12.5 h 0 c -6.904 0 -12.5 5.596 -12.5 12.5 v 0 C 56.164 51.904 61.761 57.5 68.664 57.5 z" style="stroke: none; stroke-width: 1; stroke-dasharray: none; stroke-linecap: butt; stroke-linejoin: miter; stroke-miterlimit: 10; fill: rgb(237,255,233); fill-rule: nonzero; opacity: 1;" transform=" matrix(1 0 0 1 0 0) " stroke-linecap="round"/>
    <path d="M 68.664 58.5 c -7.444 0 -13.5 -6.056 -13.5 -13.5 c 0 -7.444 6.056 -13.5 13.5 -13.5 s 13.5 6.056 13.5 13.5 C 82.164 52.444 76.108 58.5 68.664 58.5 z M 68.664 33.5 c -6.341 0 -11.5 5.159 -11.5 11.5 c 0 6.341 5.159 11.5 11.5 11.5 s 11.5 -5.159 11.5 -11.5 C 80.164 38.659 75.005 33.5 68.664 33.5 z" style="stroke: none; stroke-width: 1; stroke-dasharray: none; stroke-linecap: butt; stroke-linejoin: miter; stroke-miterlimit: 10; fill: rgb(0,0,0); fill-rule: nonzero; opacity: 1;" transform=" matrix(1 0 0 1 0 0) " stroke-linecap="round"/>
    <path d="M 46.793 56 c -0.34 0 -0.664 -0.174 -0.85 -0.473 l -10.564 -17.02 V 55 c 0 0.553 -0.448 1 -1 1 s -1 -0.447 -1 -1 V 35 c 0 -0.447 0.296 -0.839 0.726 -0.962 c 0.431 -0.123 0.889 0.055 1.124 0.435 l 10.564 17.021 V 35 c 0 -0.552 0.447 -1 1 -1 s 1 0.448 1 1 v 20 c 0 0.446 -0.296 0.839 -0.726 0.962 C 46.977 55.987 46.884 56 46.793 56 z" style="stroke: none; stroke-width: 1; stroke-dasharray: none; stroke-linecap: butt; stroke-linejoin: miter; stroke-miterlimit: 10; fill: rgb(0,0,0); fill-rule: nonzero; opacity: 1;" transform=" matrix(1 0 0 1 0 0) " stroke-linecap="round"/>
    <path d="M 22.298 56 h -3.79 c -2.929 0 -5.312 -2.383 -5.312 -5.313 V 39.312 c 0 -2.929 2.383 -5.312 5.312 -5.312 h 3.79 c 2.929 0 5.312 2.383 5.312 5.312 v 11.375 C 27.61 53.617 25.227 56 22.298 56 z M 18.508 36 c -1.826 0 -3.312 1.486 -3.312 3.312 v 11.375 c 0 1.826 1.486 3.313 3.312 3.313 h 3.79 c 1.826 0 3.312 -1.486 3.312 -3.313 V 39.312 c 0 -1.826 -1.486 -3.312 -3.312 -3.312 H 18.508 z" style="stroke: none; stroke-width: 1; stroke-dasharray: none; stroke-linecap: butt; stroke-linejoin: miter; stroke-miterlimit: 10; fill: rgb(0,0,0); fill-rule: nonzero; opacity: 1;" transform=" matrix(1 0 0 1 0 0) " stroke-linecap="round"/>
  </g>
</svg>